<svg width="48" height="48" viewBox="0 0 48 48" fill="none" xmlns="http://www.w3.org/2000/svg">
<g clip-path="url(#clip0_2330_6)">
<path fill-rule="evenodd" clip-rule="evenodd" d="M22.2731 0.0251405C19.2358 0.321183 16.7817 0.933349 14.3912 1.99131C12.6329 2.76938 10.5258 3.99174 10.0264 4.5233C9.5296 5.05214 9.85605 5.91691 10.596 6.03241C10.8782 6.07642 11.051 5.99788 11.9515 5.4164C13.1608 4.63543 15.0367 3.69429 16.3617 3.20364C17.3083 2.85308 19.6422 2.2228 19.9936 2.2228C20.1799 2.2228 20.1802 2.22768 20.0116 2.48084C18.4919 4.76173 17.4244 7.58338 16.5553 11.617L16.4014 12.3316L15.7735 12.4865C14.4006 12.8253 13.36 13.8071 12.9029 15.1952C12.8524 15.3486 12.5466 15.3594 8.24803 15.3594C5.71764 15.3594 3.64731 15.3325 3.64731 15.2994C3.64731 15.1316 4.73399 13.0463 5.20522 12.3098C5.87791 11.2587 5.92389 10.8939 5.43811 10.4599C5.169 10.2194 5.06766 10.1847 4.75632 10.2265C4.27384 10.2912 4.2014 10.3612 3.58595 11.3561C-1.36599 19.3615 -1.17541 29.5702 4.07191 37.3921L4.47107 37.9871L4.19511 38.522C3.81424 39.2605 3.67302 40.1438 3.80889 40.937C4.26229 43.5838 7.11106 45.0272 9.47509 43.808L10.0061 43.5341L10.8381 44.0733C14.6524 46.5452 18.6671 47.8148 23.2034 47.9835C31.5758 48.2949 39.4727 44.1824 44.15 37.075C46.8052 33.0405 48.1823 28.0731 48.0005 23.1864C47.8318 18.6501 46.5622 14.6354 44.0903 10.8211L43.5511 9.98906L43.825 9.45806C44.2039 8.72335 44.3449 7.83898 44.2092 7.04703C43.7554 4.39803 40.907 2.95685 38.5391 4.17809L38.0041 4.45405L37.4091 4.05489C34.4231 2.05165 31.0672 0.763418 27.387 0.207364C26.4524 0.0661455 23.0838 -0.0538667 22.2731 0.0251405ZM24.8304 2.07877C26.8891 3.03727 28.9475 7.69138 29.9154 13.5766C30.0216 14.2217 30.1315 14.8871 30.1596 15.0553L30.2108 15.3611L25.3646 15.3368L20.5184 15.3125L20.3469 14.8609C20.0276 14.0195 19.4351 13.3854 18.2947 12.6653C18.2395 12.6305 18.5351 11.2675 18.9111 9.82326C20.1482 5.07025 22.2075 1.84935 24.009 1.84935C24.1897 1.84935 24.5593 1.95256 24.8304 2.07877ZM29.4663 2.53949C30.1547 2.71364 31.1403 3.0125 31.6564 3.20364C33.7966 3.99615 36.8562 5.71357 36.7255 6.04893C36.498 6.63238 36.3767 7.39374 36.4229 7.9467C36.6515 10.6782 39.3365 12.2953 41.951 11.2761C42.0769 11.2269 42.2289 11.3929 42.6533 12.0432C43.1658 12.8284 44.3708 15.0965 44.3708 15.2759C44.3708 15.3238 41.7589 15.3594 38.2427 15.3594H32.1147L31.8581 13.7877C31.1108 9.21025 29.8711 5.39013 28.3789 3.0673C28.1635 2.73184 27.9552 2.40465 27.9162 2.34009C27.8045 2.15571 28.099 2.19362 29.4663 2.53949ZM41.2855 5.86295C42.8159 6.66241 42.7267 8.82619 41.1335 9.55387C39.7681 10.1776 38.1471 8.99406 38.2927 7.47969C38.3916 6.44997 39.3151 5.60078 40.336 5.60078C40.6438 5.60078 40.9405 5.6827 41.2855 5.86295ZM6.87516 7.23347C6.52414 7.5845 6.47197 7.88693 6.68985 8.30833C7.01282 8.93279 7.9761 8.93279 8.29908 8.30833C8.54811 7.82669 8.39638 7.27898 7.95002 7.04816C7.52862 6.83028 7.22619 6.88245 6.87516 7.23347ZM17.5994 14.4711C18.5808 14.9601 19.0184 16.1328 18.5788 17.0953C17.8476 18.6962 15.6905 18.7775 14.8797 17.2347C14.6518 16.8011 14.6151 16.6361 14.6464 16.1877C14.751 14.6909 16.2693 13.8083 17.5994 14.4711ZM12.9029 17.4003C13.2422 18.4305 14.0323 19.3706 14.9256 19.807L15.4599 20.068L15.4063 22.6634C15.3582 24.9845 15.4251 27.2015 15.6255 29.927L15.6858 30.748H9.29849H2.9112L2.81248 30.443C2.60727 29.8091 2.24376 28.1683 2.08406 27.1552C1.96011 26.3682 1.91901 25.5596 1.92088 23.9451C1.92398 21.3813 2.10639 20.0441 2.76904 17.7287L2.90998 17.2361H7.87936C12.5291 17.2361 12.8523 17.2467 12.9029 17.4003ZM30.4336 17.3533C30.6278 17.9522 30.8233 23.9883 30.7219 26.2568L30.6521 27.8177L30.3424 27.868C29.774 27.9602 28.9931 28.4207 28.4636 28.9759C27.9959 29.466 27.4841 30.3287 27.4818 30.6307C27.4804 30.8024 17.6401 30.8024 17.5845 30.6307C17.3904 30.0326 17.1947 23.9964 17.296 21.732L17.3655 20.1756L17.8235 20.0582C18.4019 19.91 19.2835 19.3443 19.6779 18.8685C19.9506 18.5394 20.334 17.8353 20.4773 17.4003C20.5278 17.2467 20.8493 17.2361 25.4635 17.2361C29.3263 17.2361 30.4038 17.2615 30.4336 17.3533ZM45.2056 17.541C45.412 18.1787 45.7746 19.8178 45.9328 20.8288C46.1656 22.3159 46.1663 25.6044 45.9341 27.0885C45.7614 28.1925 45.5055 29.3792 45.2511 30.2554L45.1081 30.748H40.1156H35.1231L34.8543 30.1311C34.5136 29.3489 33.8426 28.6121 33.1208 28.2274L32.5579 27.9274L32.6117 25.3263C32.6599 22.9994 32.5932 20.7849 32.3926 18.0571L32.3323 17.2361H38.7196H45.1069L45.2056 17.541ZM32.1785 29.88C32.5119 30.049 32.7848 30.2785 32.9695 30.5449C33.2244 30.9126 33.2516 31.0226 33.2516 31.6863C33.2516 32.35 33.2244 32.4601 32.9695 32.8277C32.6397 33.3034 31.8465 33.7509 31.3347 33.7501C30.1484 33.7483 29.227 32.846 29.227 31.6863C29.227 30.1325 30.7901 29.1759 32.1785 29.88ZM16.16 34.1963C16.9221 38.8646 18.167 42.6546 19.7277 45.0575C20.0808 45.6011 20.1265 45.719 19.9931 45.7414C19.7397 45.7838 17.3975 45.164 16.3617 44.7804C14.2215 43.9879 11.1619 42.2705 11.2926 41.9351C11.5201 41.3517 11.6414 40.5903 11.5951 40.0373C11.3666 37.3059 8.68154 35.6888 6.06708 36.708C5.94115 36.7571 5.78924 36.5912 5.36483 35.9409C4.85232 35.1556 3.64731 32.8876 3.64731 32.7082C3.64731 32.6602 6.25915 32.6246 9.77535 32.6246H15.9034L16.16 34.1963ZM27.4818 32.7419C27.4823 32.8065 27.5863 33.0818 27.713 33.3539C27.9975 33.9651 28.7543 34.7794 29.3131 35.0759C29.544 35.1984 29.7328 35.3469 29.7328 35.4059C29.7328 35.6225 29.1627 38.0165 28.8795 38.9891C27.8244 42.6132 26.2977 45.2221 24.8336 45.9038C24.2083 46.1949 23.8105 46.1952 23.1877 45.9053C21.1266 44.9457 19.1459 40.4698 18.0996 34.4075C17.9438 33.5043 17.8163 32.7338 17.8162 32.695C17.8161 32.6563 19.9907 32.6246 22.6485 32.6246C26.4513 32.6246 27.481 32.6496 27.4818 32.7419ZM44.3708 32.6859C44.3708 32.8114 43.2603 34.951 42.8674 35.5824C41.1206 38.39 38.407 41.1036 35.5994 42.8504C34.6156 43.4624 32.9006 44.3012 31.7459 44.7352C30.7223 45.1199 28.399 45.7612 28.029 45.7612C27.8378 45.7612 27.8374 45.757 28.0065 45.5032C29.5122 43.2433 30.6258 40.3016 31.464 36.369L31.6159 35.6563L32.1992 35.4942C33.4549 35.145 34.3594 34.3776 34.8543 33.2415L35.1231 32.6246H39.747C42.29 32.6246 44.3708 32.6522 44.3708 32.6859ZM8.63172 38.5168C10.2023 39.3373 10.0457 41.6136 8.3748 42.2517C7.0359 42.7631 5.53805 41.6449 5.63845 40.2089C5.71445 39.1219 6.62144 38.2546 7.68213 38.2546C7.98999 38.2546 8.28669 38.3365 8.63172 38.5168Z" fill="#8E2424"/>
</g>
<defs>
<clipPath id="clip0_2330_6">
<rect width="48" height="48" fill="white"/>
</clipPath>
</defs>
</svg>
